<?xml version="1.0" encoding="UTF-8"?>
<svg width="32px" height="32px" viewBox="0 0 32 32" version="1.1" xmlns="http://www.w3.org/2000/svg" xmlns:xlink="http://www.w3.org/1999/xlink">
    <title>Artboard</title>
    <defs>
        <linearGradient x1="0%" y1="50%" x2="100%" y2="50%" id="linearGradient-1">
            <stop stop-color="#D95E5A" offset="0%"></stop>
            <stop stop-color="#E6935D" offset="61.04%"></stop>
            <stop stop-color="#EDB05F" offset="100%"></stop>
        </linearGradient>
    </defs>
    <g id="Artboard" stroke="none" stroke-width="1" fill="none" fill-rule="evenodd">
        <g id="avatar" fill-rule="nonzero">
            <circle id="Oval" fill="url(#linearGradient-1)" cx="16" cy="16" r="16"></circle>
            <path d="M15.8117647,7.15294118 C16.9411765,7.15294118 18.0705882,7.34117647 19.0117647,7.71764706 C19.9529412,8.09411765 20.8941176,8.65882353 21.5529412,9.41176471 C22.3058824,10.1647059 22.8705882,11.1058824 23.2470588,12.1411765 C23.6235294,13.2705882 23.9058824,14.4941176 23.9058824,16 C23.9058824,17.3176471 23.7176471,18.5411765 23.4352941,19.5764706 C23.0588235,20.7058824 22.5882353,21.6470588 21.9294118,22.4 C21.2705882,23.1529412 20.4235294,23.8117647 19.3882353,24.2823529 C18.3529412,24.7529412 17.2235294,24.9411765 15.8117647,24.9411765 L8.09411765,24.9411765 L8.09411765,7.05882353 L15.8117647,7.05882353 L15.8117647,7.15294118 L15.8117647,7.15294118 Z M15.5294118,21.7411765 C16.0941176,21.7411765 16.6588235,21.6470588 17.2235294,21.4588235 C17.7882353,21.2705882 18.2588235,20.9882353 18.6352941,20.5176471 C19.0117647,20.0470588 19.3882353,19.5764706 19.6705882,18.8235294 C19.9529412,18.1647059 20.0470588,17.3176471 20.0470588,16.2823529 C20.0470588,15.3411765 19.9529412,14.5882353 19.7647059,13.8352941 C19.5764706,13.0823529 19.2941176,12.5176471 18.9176471,11.9529412 C18.5411765,11.4823529 17.9764706,11.0117647 17.3176471,10.7294118 C16.6588235,10.4470588 15.8117647,10.3529412 14.8705882,10.3529412 L12.0470588,10.3529412 L12.0470588,21.6470588 L15.5294118,21.6470588 L15.5294118,21.7411765 Z" id="Shape" fill="#FFFFFF"></path>
        </g>
    </g>
</svg>