<?xml version="1.0" encoding="UTF-8"?>
<svg width="144px" height="47px" viewBox="0 0 144 47" version="1.1" xmlns="http://www.w3.org/2000/svg" xmlns:xlink="http://www.w3.org/1999/xlink">
    <title>Artboard</title>
    <defs>
        <linearGradient x1="-0.166442308%" y1="44.6810661%" x2="98.5795192%" y2="55.1506813%" id="linearGradient-1">
            <stop stop-color="#D95E5A" offset="0%"></stop>
            <stop stop-color="#E6935D" offset="61.04%"></stop>
            <stop stop-color="#EDB05F" offset="100%"></stop>
        </linearGradient>
    </defs>
    <g id="Artboard" stroke="none" stroke-width="1" fill="none" fill-rule="evenodd">
        <g id="logo" fill-rule="nonzero">
            <ellipse id="Oval" fill="url(#linearGradient-1)" cx="72" cy="23.5" rx="72" ry="23.5"></ellipse>
            <g id="Group" transform="translate(24.000000, 14.387755)" fill="#FFFFFF">
                <path d="M5.66330935,0.326122449 C6.49208633,0.326122449 7.32086331,0.456571429 8.01151079,0.717469388 C8.70215827,0.978367347 9.39280576,1.36971429 9.87625899,1.8915102 C10.428777,2.41330612 10.8431655,3.06555102 11.1194245,3.78302041 C11.3956835,4.56571429 11.6028777,5.41363265 11.6028777,6.45722449 C11.6028777,7.37036735 11.4647482,8.21828571 11.257554,8.9357551 C10.981295,9.71844898 10.6359712,10.3706939 10.152518,10.8924898 C9.66906475,11.4142857 9.04748201,11.8708571 8.28776978,12.1969796 C7.52805755,12.523102 6.69928058,12.653551 5.66330935,12.653551 L0,12.653551 L0,0.260897959 L5.66330935,0.260897959 L5.66330935,0.326122449 Z M5.45611511,10.4359184 C5.8705036,10.4359184 6.28489209,10.3706939 6.69928058,10.2402449 C7.11366906,10.1097959 7.45899281,9.91412245 7.7352518,9.588 C8.01151079,9.26187755 8.28776978,8.9357551 8.49496403,8.41395918 C8.70215827,7.95738776 8.77122302,7.37036735 8.77122302,6.65289796 C8.77122302,6.00065306 8.70215827,5.47885714 8.56402878,4.95706122 C8.42589928,4.43526531 8.21870504,4.04391837 7.94244604,3.65257143 C7.66618705,3.32644898 7.25179856,3.00032653 6.76834532,2.80465306 C6.28489209,2.60897959 5.66330935,2.5437551 4.97266187,2.5437551 L2.90071942,2.5437551 L2.90071942,10.3706939 L5.45611511,10.3706939 L5.45611511,10.4359184 Z" id="Shape"></path>
                <path d="M13.0532374,2.34808163 L13.0532374,0.326122449 L15.6776978,0.326122449 L15.6776978,2.34808163 L13.0532374,2.34808163 Z M15.6086331,3.78302041 L15.6086331,12.7187755 L12.9841727,12.7187755 L12.9841727,3.78302041 L15.6086331,3.78302041 Z" id="Shape"></path>
                <path d="M19.752518,3.78302041 L19.752518,5.47885714 L19.8215827,5.47885714 C19.9597122,5.21795918 20.0978417,4.95706122 20.305036,4.69616327 C20.5122302,4.43526531 20.7194245,4.23959184 20.9956835,4.10914286 C21.2719424,3.91346939 21.5482014,3.78302041 21.8244604,3.71779592 C22.1007194,3.65257143 22.4460432,3.58734694 22.7913669,3.58734694 C22.9294964,3.58734694 23.1366906,3.58734694 23.3438849,3.65257143 L23.3438849,5.87020408 C23.2057554,5.87020408 23.0676259,5.80497959 22.9294964,5.80497959 C22.7913669,5.80497959 22.5841727,5.80497959 22.4460432,5.80497959 C21.9625899,5.80497959 21.5482014,5.87020408 21.2028777,6.00065306 C20.857554,6.13110204 20.581295,6.32677551 20.3741007,6.58767347 C20.1669065,6.84857143 20.028777,7.17469388 19.9597122,7.50081633 C19.8906475,7.82693878 19.8215827,8.21828571 19.8215827,8.60963265 L19.8215827,12.653551 L17.2661871,12.653551 L17.2661871,3.78302041 L19.752518,3.78302041 Z" id="Path"></path>
                <path d="M26.5208633,10.5663673 C26.9352518,10.8924898 27.4877698,11.0881633 28.1784173,11.0881633 C28.7309353,11.0881633 29.1453237,10.9577143 29.5597122,10.6968163 C29.905036,10.4359184 30.181295,10.1750204 30.2503597,9.91412245 L32.5294964,9.91412245 C32.1841727,10.9577143 31.6316547,11.7404082 30.8719424,12.1969796 C30.1122302,12.653551 29.2143885,12.914449 28.1093525,12.914449 C27.3496403,12.914449 26.6589928,12.784 26.1064748,12.5883265 C25.5539568,12.3926531 25.0014388,12.0665306 24.5870504,11.6099592 C24.1726619,11.2186122 23.8273381,10.6968163 23.6201439,10.1097959 C23.4129496,9.52277551 23.2748201,8.87053061 23.2748201,8.21828571 C23.2748201,7.56604082 23.4129496,6.91379592 23.6201439,6.32677551 C23.8273381,5.7397551 24.1726619,5.21795918 24.5870504,4.82661224 C25.0014388,4.43526531 25.5539568,4.04391837 26.1064748,3.8482449 C26.7280576,3.58734694 27.3496403,3.45689796 28.1093525,3.45689796 C28.9381295,3.45689796 29.628777,3.58734694 30.2503597,3.91346939 C30.8719424,4.23959184 31.3553957,4.63093878 31.7007194,5.0875102 C32.1151079,5.60930612 32.3913669,6.13110204 32.5294964,6.78334694 C32.6676259,7.43559184 32.7366906,8.08783673 32.7366906,8.80530612 L25.8992806,8.80530612 C25.8992806,9.65322449 26.1064748,10.2402449 26.5208633,10.5663673 Z M29.4215827,5.87020408 C29.076259,5.54408163 28.6618705,5.41363265 27.971223,5.41363265 C27.5568345,5.41363265 27.2115108,5.47885714 26.9352518,5.60930612 C26.6589928,5.7397551 26.4517986,5.93542857 26.2446043,6.13110204 C26.1064748,6.32677551 25.9683453,6.52244898 25.8992806,6.78334694 C25.8302158,6.97902041 25.7611511,7.17469388 25.7611511,7.37036735 L29.9741007,7.37036735 C29.9741007,6.65289796 29.7669065,6.19632653 29.4215827,5.87020408 Z" id="Shape"></path>
                <path d="M38.4,5.34840816 C37.9856115,5.34840816 37.6402878,5.41363265 37.3640288,5.60930612 C37.0877698,5.80497959 36.8805755,6.00065306 36.6733813,6.32677551 C36.4661871,6.65289796 36.3971223,6.91379592 36.3280576,7.23991837 C36.2589928,7.56604082 36.1899281,7.89216327 36.1899281,8.2835102 C36.1899281,8.60963265 36.2589928,8.9357551 36.3280576,9.26187755 C36.3971223,9.588 36.5352518,9.91412245 36.6733813,10.1750204 C36.8115108,10.4359184 37.0877698,10.6968163 37.3640288,10.8272653 C37.6402878,11.0229388 37.9856115,11.0881633 38.4,11.0881633 C39.0215827,11.0881633 39.505036,10.8924898 39.8503597,10.5663673 C40.1956835,10.2402449 40.4028777,9.78367347 40.4719424,9.26187755 L42.9582734,9.26187755 C42.8201439,10.4359184 42.2676259,11.3490612 41.5079137,12.0013061 C40.7482014,12.653551 39.6431655,12.914449 38.4,12.914449 C37.7093525,12.914449 37.018705,12.784 36.4661871,12.5883265 C35.9136691,12.3926531 35.3611511,12.0665306 34.9467626,11.6751837 C34.5323741,11.2838367 34.1870504,10.7620408 33.9798561,10.2402449 C33.7726619,9.65322449 33.6345324,9.06620408 33.6345324,8.41395918 C33.6345324,7.6964898 33.7726619,7.0442449 33.9798561,6.45722449 C34.1870504,5.87020408 34.5323741,5.34840816 34.9467626,4.89183673 C35.3611511,4.43526531 35.8446043,4.10914286 36.4661871,3.8482449 C37.0877698,3.58734694 37.7784173,3.45689796 38.5381295,3.45689796 C39.0906475,3.45689796 39.6431655,3.52212245 40.1956835,3.65257143 C40.7482014,3.78302041 41.1625899,3.97869388 41.5769784,4.30481633 C41.9913669,4.63093878 42.3366906,4.95706122 42.5438849,5.34840816 C42.8201439,5.7397551 42.9582734,6.26155102 42.9582734,6.84857143 L40.4028777,6.84857143 C40.1266187,5.87020408 39.505036,5.34840816 38.4,5.34840816 Z" id="Path"></path>
                <path d="M49.1741007,3.78302041 L49.1741007,5.41363265 L47.2402878,5.41363265 L47.2402878,9.84889796 C47.2402878,10.2402449 47.3093525,10.5663673 47.447482,10.6968163 C47.5856115,10.8272653 47.8618705,10.8924898 48.3453237,10.8924898 C48.4834532,10.8924898 48.6215827,10.8924898 48.7597122,10.8924898 C48.8978417,10.8924898 49.0359712,10.8924898 49.1741007,10.8272653 L49.1741007,12.7187755 C48.9669065,12.784 48.6906475,12.784 48.4143885,12.784 C48.1381295,12.784 47.8618705,12.784 47.6546763,12.784 C47.2402878,12.784 46.894964,12.784 46.4805755,12.7187755 C46.1352518,12.653551 45.7899281,12.5883265 45.5136691,12.3926531 C45.2374101,12.2622041 45.0302158,12.0013061 44.8920863,11.7404082 C44.7539568,11.4795102 44.6848921,11.0881633 44.6848921,10.6315918 L44.6848921,5.34840816 L43.0964029,5.34840816 L43.0964029,3.71779592 L44.6848921,3.71779592 L44.6848921,1.04359184 L47.3093525,1.04359184 L47.3093525,3.71779592 L49.1741007,3.71779592 L49.1741007,3.78302041 Z" id="Path"></path>
                <path d="M52.4892086,3.78302041 L52.4892086,5.47885714 L52.5582734,5.47885714 C52.6964029,5.21795918 52.8345324,4.95706122 53.0417266,4.69616327 C53.2489209,4.43526531 53.4561151,4.23959184 53.7323741,4.10914286 C54.0086331,3.91346939 54.2848921,3.78302041 54.5611511,3.71779592 C54.8374101,3.65257143 55.1827338,3.58734694 55.5280576,3.58734694 C55.6661871,3.58734694 55.8733813,3.58734694 56.0805755,3.65257143 L56.0805755,5.87020408 C55.942446,5.87020408 55.8043165,5.80497959 55.6661871,5.80497959 C55.5280576,5.80497959 55.3208633,5.80497959 55.1827338,5.80497959 C54.6992806,5.80497959 54.2848921,5.87020408 53.9395683,6.00065306 C53.5942446,6.13110204 53.3179856,6.32677551 53.1107914,6.58767347 C52.9035971,6.84857143 52.7654676,7.17469388 52.6964029,7.50081633 C52.6273381,7.82693878 52.5582734,8.21828571 52.5582734,8.60963265 L52.5582734,12.653551 L49.9338129,12.653551 L49.9338129,3.78302041 L52.4892086,3.78302041 Z" id="Path"></path>
                <path d="M56.494964,6.26155102 C56.7021583,5.67453061 57.047482,5.15273469 57.4618705,4.76138776 C57.876259,4.37004082 58.428777,4.04391837 58.981295,3.78302041 C59.6028777,3.58734694 60.2244604,3.45689796 60.9841727,3.45689796 C61.7438849,3.45689796 62.4345324,3.58734694 62.9870504,3.78302041 C63.6086331,3.97869388 64.0920863,4.30481633 64.5064748,4.76138776 C64.9208633,5.15273469 65.2661871,5.67453061 65.4733813,6.26155102 C65.6805755,6.84857143 65.818705,7.50081633 65.818705,8.21828571 C65.818705,8.9357551 65.6805755,9.588 65.4733813,10.1750204 C65.2661871,10.7620408 64.9208633,11.2186122 64.5064748,11.6751837 C64.0920863,12.0665306 63.5395683,12.3926531 62.9870504,12.5883265 C62.3654676,12.784 61.6748201,12.914449 60.9841727,12.914449 C60.2244604,12.914449 59.5338129,12.784 58.981295,12.5883265 C58.3597122,12.3926531 57.876259,12.0665306 57.4618705,11.6751837 C57.047482,11.2838367 56.7021583,10.7620408 56.494964,10.1750204 C56.2877698,9.588 56.1496403,8.9357551 56.1496403,8.21828571 C56.1496403,7.50081633 56.218705,6.84857143 56.494964,6.26155102 Z M58.8431655,9.26187755 C58.9122302,9.588 59.0503597,9.91412245 59.1884892,10.1750204 C59.3266187,10.4359184 59.6028777,10.6315918 59.8791367,10.8272653 C60.1553957,11.0229388 60.5697842,11.0881633 60.9841727,11.0881633 C61.3985612,11.0881633 61.8129496,11.0229388 62.0892086,10.8272653 C62.3654676,10.6968163 62.6417266,10.4359184 62.7798561,10.1750204 C62.9179856,9.91412245 63.0561151,9.588 63.1251799,9.26187755 C63.1942446,8.9357551 63.2633094,8.54440816 63.2633094,8.21828571 C63.2633094,7.89216327 63.1942446,7.50081633 63.1251799,7.17469388 C63.0561151,6.84857143 62.9179856,6.52244898 62.7798561,6.26155102 C62.5726619,6.00065306 62.3654676,5.80497959 62.0892086,5.60930612 C61.8129496,5.41363265 61.3985612,5.34840816 60.9841727,5.34840816 C60.5697842,5.34840816 60.1553957,5.41363265 59.8791367,5.60930612 C59.6028777,5.80497959 59.3266187,6.00065306 59.1884892,6.26155102 C58.981295,6.52244898 58.9122302,6.84857143 58.8431655,7.17469388 C58.7741007,7.50081633 58.705036,7.89216327 58.705036,8.21828571 C58.7741007,8.60963265 58.7741007,8.9357551 58.8431655,9.26187755 Z" id="Shape"></path>
                <path d="M69.7553957,3.78302041 L69.7553957,4.95706122 L69.8244604,4.95706122 C70.1697842,4.5004898 70.5151079,4.10914286 71.0676259,3.91346939 C71.5510791,3.71779592 72.1035971,3.58734694 72.6561151,3.58734694 C73.4158273,3.58734694 74.0374101,3.71779592 74.5899281,3.97869388 C75.142446,4.23959184 75.5568345,4.56571429 75.9021583,5.02228571 C76.247482,5.47885714 76.523741,6.00065306 76.6618705,6.58767347 C76.8,7.17469388 76.9381295,7.76171429 76.9381295,8.41395918 C76.9381295,9.00097959 76.8690647,9.588 76.6618705,10.1750204 C76.523741,10.7620408 76.247482,11.2186122 75.9021583,11.6751837 C75.5568345,12.1317551 75.142446,12.4578776 74.5899281,12.7187755 C74.0374101,12.9796735 73.4848921,13.1101224 72.7942446,13.1101224 C72.1726619,13.1101224 71.6892086,12.9796735 71.1366906,12.784 C70.5841727,12.5883265 70.2388489,12.1969796 69.8935252,11.8056327 L69.8244604,11.8056327 L69.8244604,16.0452245 L67.2,16.0452245 L67.2,3.78302041 L69.7553957,3.78302041 Z M73.1395683,10.8924898 C73.4158273,10.7620408 73.6920863,10.5011429 73.8302158,10.2402449 C73.9683453,9.97934694 74.1064748,9.65322449 74.1755396,9.32710204 C74.2446043,9.00097959 74.3136691,8.60963265 74.3136691,8.2835102 C74.3136691,7.95738776 74.2446043,7.56604082 74.1755396,7.23991837 C74.1064748,6.91379592 73.9683453,6.58767347 73.7611511,6.32677551 C73.5539568,6.06587755 73.3467626,5.80497959 73.0705036,5.67453061 C72.7942446,5.47885714 72.4489209,5.41363265 72.0345324,5.41363265 C71.6201439,5.41363265 71.2748201,5.47885714 70.9294964,5.67453061 C70.6532374,5.87020408 70.3769784,6.06587755 70.2388489,6.32677551 C70.0316547,6.58767347 69.9625899,6.91379592 69.8935252,7.23991837 C69.8244604,7.56604082 69.7553957,7.95738776 69.7553957,8.2835102 C69.7553957,8.60963265 69.8244604,9.00097959 69.8935252,9.32710204 C69.9625899,9.65322449 70.1007194,9.97934694 70.3079137,10.2402449 C70.5151079,10.5011429 70.7223022,10.6968163 70.9985612,10.8924898 C71.2748201,11.0881633 71.6201439,11.1533878 72.0345324,11.1533878 C72.4489209,11.0881633 72.7942446,11.0229388 73.1395683,10.8924898 Z" id="Shape"></path>
                <path d="M78.1122302,6.26155102 C78.3194245,5.67453061 78.6647482,5.15273469 79.0791367,4.76138776 C79.4935252,4.37004082 80.0460432,4.04391837 80.5985612,3.78302041 C81.2201439,3.58734694 81.8417266,3.45689796 82.6014388,3.45689796 C83.3611511,3.45689796 84.0517986,3.58734694 84.6043165,3.78302041 C85.2258993,3.97869388 85.7093525,4.30481633 86.123741,4.76138776 C86.5381295,5.15273469 86.8834532,5.67453061 87.0906475,6.26155102 C87.2978417,6.84857143 87.4359712,7.50081633 87.4359712,8.21828571 C87.4359712,8.9357551 87.2978417,9.588 87.0906475,10.1750204 C86.8834532,10.7620408 86.5381295,11.2186122 86.123741,11.6751837 C85.7093525,12.0665306 85.1568345,12.3926531 84.6043165,12.5883265 C83.9827338,12.784 83.2920863,12.914449 82.6014388,12.914449 C81.8417266,12.914449 81.1510791,12.784 80.5985612,12.5883265 C79.9769784,12.3926531 79.4935252,12.0665306 79.0791367,11.6751837 C78.6647482,11.2838367 78.3194245,10.7620408 78.1122302,10.1750204 C77.905036,9.588 77.7669065,8.9357551 77.7669065,8.21828571 C77.7669065,7.50081633 77.905036,6.84857143 78.1122302,6.26155102 Z M80.4604317,9.26187755 C80.5294964,9.588 80.6676259,9.91412245 80.8057554,10.1750204 C80.9438849,10.4359184 81.2201439,10.6315918 81.4964029,10.8272653 C81.7726619,11.0229388 82.1870504,11.0881633 82.6014388,11.0881633 C83.0158273,11.0881633 83.4302158,11.0229388 83.7064748,10.8272653 C83.9827338,10.6968163 84.2589928,10.4359184 84.3971223,10.1750204 C84.5352518,9.91412245 84.6733813,9.588 84.742446,9.26187755 C84.8115108,8.9357551 84.8805755,8.54440816 84.8805755,8.21828571 C84.8805755,7.89216327 84.8115108,7.50081633 84.742446,7.17469388 C84.6733813,6.84857143 84.5352518,6.52244898 84.3971223,6.26155102 C84.1899281,6.00065306 83.9827338,5.80497959 83.7064748,5.60930612 C83.4302158,5.41363265 83.0158273,5.34840816 82.6014388,5.34840816 C82.1870504,5.34840816 81.7726619,5.41363265 81.4964029,5.60930612 C81.2201439,5.80497959 80.9438849,6.00065306 80.8057554,6.26155102 C80.5985612,6.52244898 80.5294964,6.84857143 80.4604317,7.17469388 C80.3913669,7.50081633 80.3223022,7.89216327 80.3223022,8.21828571 C80.3913669,8.60963265 80.3913669,8.9357551 80.4604317,9.26187755 Z" id="Shape"></path>
                <polygon id="Path" points="91.5798561 0.326122449 91.5798561 12.7187755 88.9553957 12.7187755 88.9553957 0.326122449"></polygon>
                <path d="M93.3064748,2.34808163 L93.3064748,0.326122449 L95.9309353,0.326122449 L95.9309353,2.34808163 L93.3064748,2.34808163 Z M95.8618705,3.78302041 L95.8618705,12.7187755 L93.2374101,12.7187755 L93.2374101,3.78302041 L95.8618705,3.78302041 Z" id="Shape"></path>
            </g>
        </g>
    </g>
</svg>